<svg xmlns="http://www.w3.org/2000/svg" xmlns:xlink="http://www.w3.org/1999/xlink" width="1000" height="1000" viewBox="0 0 1000 1000"><defs><style>.a{clip-path:url(#b);}.b,.f{fill:#fff;}.b{stroke:#000;stroke-width:6px;}.c{font-size:156px;font-family:Quicksand-Light, Quicksand;font-weight:300;}.d{stroke:none;}.e{fill:none;}</style><clipPath id="b"><rect width="1000" height="1000"/></clipPath></defs><g id="a" class="a"><rect class="f" width="1000" height="1000"/><path d="M414.7,916.634s100.564,0,100.564-297.681a100.583,100.583,0,0,0-201.166,0C314.1,916.634,414.7,916.634,414.7,916.634ZM538.07,815.192c4.392-17.073,7.83-34.221,10.5-51.6l2.024-13.75c4.392-1.91,8.784-3.743,13.215-5.729A363.338,363.338,0,0,0,729.879,591.606a358.775,358.775,0,0,0,37.162-98.234,353.73,353.73,0,0,0,6.34-117.942,340.865,340.865,0,0,0-29.409-106.446,347.477,347.477,0,0,0-73.485-106.331A360.774,360.774,0,0,0,560.681,87.335c-41.937-18.944-87.96-28.722-134.442-29.867A358.38,358.38,0,0,0,97.506,252.828a369.3,369.3,0,0,0-34.451,104A358.012,358.012,0,0,0,254.406,735.6c8.632,3.972,17.225,8.021,26.43,11.993.573,4.621,1.757,9.778,2.292,14.972,2.865,16.729,6.34,33.954,10.35,50.607a448.768,448.768,0,0,1-45.985-17.875C165.3,758.016,95.787,693.621,52.667,613.72A428.421,428.421,0,0,1,10.73,498.757C.914,454.529-.8,407.971,5,362.558A431.885,431.885,0,0,1,40.636,239.575,427.507,427.507,0,0,1,127.374,117.2c34.985-34.985,78.679-64.318,126.421-84.446A417.438,417.438,0,0,1,789.5,231.593,410.078,410.078,0,0,1,828,352.857a404.71,404.71,0,0,1-.611,131.615c-6.34,40.218-19.555,79.863-37.392,116.605A419.06,419.06,0,0,1,602.083,789.067a465.9,465.9,0,0,1-63.211,25.246l-.8.878ZM557.931,651.15l.382-17.951c0-12.069,0-24.138-1.757-36.017a107.405,107.405,0,0,0-2.864-13.215,208.588,208.588,0,0,0,52.287-63.783,214.423,214.423,0,0,0,21.274-59.238,211.716,211.716,0,0,0,2.33-71.231,228.424,228.424,0,0,0-17.225-61.492,223.157,223.157,0,0,0-44.228-63.783,227.173,227.173,0,0,0-64.395-44.266c-26.43-11.458-55.19-18.333-83.912-18.944A226.956,226.956,0,0,0,334.765,216.2a220.7,220.7,0,0,0-66.075,41.364c-19.593,17.8-35.673,38.5-47.169,62.027a220.028,220.028,0,0,0-20.7,60.346,214.394,214.394,0,0,0-1.719,66.075,218.455,218.455,0,0,0,74.134,137.917l-3.476,15.507c-2.292,12.069-1.719,23.565-1.719,36.169v16.118a271.154,271.154,0,0,1-95.981-101.71A252.041,252.041,0,0,1,144.446,474.7a260.743,260.743,0,0,1-3.437-89.641,273.3,273.3,0,0,1,21.847-77.61c13.215-29.829,32.732-57.443,55.725-81.009a268.6,268.6,0,0,1,81.009-55.725,274.29,274.29,0,0,1,213.2-5.156A269.468,269.468,0,0,1,596.7,217.8c24.1,22.42,44.839,48.811,59.735,78.182,12.069,24.138,21.274,50,25.9,76.426,4.621,27.614,5.729,55.725,1.719,83.339A262.319,262.319,0,0,1,661.588,533.9c-22.381,50.034-60.881,93.116-108.012,121.3l4.354-4.049ZM414.7,285.446a101.557,101.557,0,0,1,0,203.114c-56.03,0-101.4-45.412-101.4-101.137s45.374-101.175,101.4-101.175Z" transform="translate(82.326 42)"/><g class="b" transform="translate(-13 403)"><rect class="d" width="1027" height="175"/><rect class="e" x="3" y="3" width="1021" height="169"/></g><text class="c" transform="translate(142 549)"><tspan x="0" y="0">LISTENME</tspan></text></g></svg>